<svg xmlns="http://www.w3.org/2000/svg" xmlns:xlink="http://www.w3.org/1999/xlink" width="400" height="400" viewBox="0 0 400 400"><defs><linearGradient id="gradient-18" x1="0%" y1="0%" x2="100%" y2="0%" gradientTransform="rotate(109.6, 0.5, 0.5)">       <stop offset="11.2%" stop-color="rgba(20, 30, 48, 1)"/>       <stop offset="91.1%" stop-color="rgba(36, 59, 85, 1)"/>     </linearGradient></defs><g data-name="icon" fill="url(#gradient-18)" data="id:5781960" transform="translate(10.29815441825057, 10.294201309668438) scale(0.4481226794184215)">
    <defs/><g><path class="fil0" d="M478.47 102.31c11.59,-1.09 21.89,7.43 22.98,19.02 1.09,11.59 -7.43,21.89 -19.02,22.98l-4 0.38c-11.59,1.09 -21.89,-7.43 -22.98,-19.02 -1.09,-11.59 7.43,-21.89 19.02,-22.98l4 -0.38zm125.05 483.92c-6.8,-9.44 -4.65,-22.63 4.79,-29.43l21.05 -15.21 -19.18 -26.55c-45.78,26.95 -98.07,35.68 -147.63,27.71 -56.11,-9.04 -108.8,-39.5 -144.72,-89.21 -4.26,-5.89 -8.18,-11.92 -11.78,-18.06l-263.23 0c-11.69,0 -21.17,-9.48 -21.17,-21.17l0 -174.64c0,-11.69 9.48,-21.17 21.17,-21.17l259.33 0c15.41,-28.76 37.43,-54.56 65.65,-74.95 7.65,-5.52 15.37,-10.43 23.06,-14.67 7.76,-4.27 16.01,-8.15 24.66,-11.6 10.81,-4.29 23.07,1.01 27.36,11.82 4.29,10.81 -1.01,23.07 -11.82,27.36 -6.45,2.57 -13.09,5.74 -19.86,9.46 -6.59,3.63 -12.87,7.6 -18.76,11.85 -40.23,29.07 -64.88,71.71 -72.19,117.12 -0.58,3.63 -1.06,7.27 -1.42,10.93l46.79 0c11.69,0 21.17,9.48 21.17,21.17 0,11.69 -9.48,21.17 -21.17,21.17l-45.99 0c2.1,15.27 6.18,30.4 12.31,44.98l229.26 0 0 -132.3 -191.53 0c-11.69,0 -21.17,-9.48 -21.17,-21.17 0,-11.69 9.48,-21.17 21.17,-21.17l212.7 0c11.69,0 21.17,9.48 21.17,21.17l0 174.64c0,11.69 -9.48,21.17 -21.17,21.17l-225.33 0c28.84,36.35 69.25,58.71 112.13,65.61 45.47,7.31 93.75,-2.71 134.01,-31.8 40.22,-29.05 64.88,-71.7 72.19,-117.11 7.31,-45.47 -2.71,-93.76 -31.8,-134.02 -13.7,-18.97 -30.59,-34.55 -49.4,-46.49 -19.5,-12.36 -41.03,-20.75 -63.24,-24.9 -11.45,-2.14 -19,-13.19 -16.86,-24.64 2.14,-11.45 13.19,-19 24.64,-16.86 27.56,5.16 54.14,15.48 78.12,30.68 23.04,14.62 43.87,33.91 60.96,57.57 35.89,49.67 48.26,109.21 39.24,165.28 -7.99,49.59 -32.73,96.5 -72.68,131.53l19.19 26.56 21.12 -15.26c9.44,-6.8 22.63,-4.65 29.43,4.79 17.03,23.57 37.67,44.61 58.05,65.32 13.16,13.37 25.73,26.02 37.13,40.98 13.41,18.58 18.05,40.84 14.67,61.78 -3.38,21.04 -14.78,40.78 -33.32,54.19 -16.24,11.68 -35.17,16.7 -53.58,15.62 -18.78,-1.11 -37.09,-8.58 -51.44,-21.82 -8.58,-7.89 -9.13,-21.26 -1.24,-29.84 7.89,-8.58 21.26,-9.13 29.84,-1.24 7.06,6.51 16.08,10.2 25.32,10.74 8.64,0.5 17.5,-1.69 25.17,-6.84l1.87 -1.39c8.74,-6.61 14.11,-16.06 15.72,-26.04 1.6,-9.91 -0.43,-20.42 -6.41,-29.33 -9.45,-13.2 -22.43,-25.63 -33.83,-37.21l-5.69 -5.77 -54.66 40.86 3.13 6.11 4.83 9.4c5.29,10.36 1.18,23.07 -9.18,28.36 -10.36,5.29 -23.07,1.18 -28.36,-9.18l-4.83 -9.4c-13.19,-25.8 -26.82,-52.03 -43.76,-75.49zm57.94 12.51l45.64 -34.12c-4.84,-5.42 -9.65,-11.03 -14.35,-16.81l-21.19 15.31 -0.44 0.32 -21.56 15.58c4.17,6.54 8.13,13.14 11.9,19.72zm-244.68 -250.6c-11.69,0 -21.17,-9.48 -21.17,-21.17 0,-11.69 9.48,-21.17 21.17,-21.17l91.62 0c11.69,0 21.17,9.48 21.17,21.17 0,11.69 -9.48,21.17 -21.17,21.17l-91.62 0zm-233.61 0.02c-11.69,0 -21.17,-9.48 -21.17,-21.17 0,-11.69 9.48,-21.17 21.17,-21.17l93.31 0c0.48,-5.88 1.17,-11.73 2.11,-17.55 1.49,-9.26 3.58,-18.42 6.22,-27.43l-220.82 0 0 132.3 222.92 0c-4.87,-14.74 -8.13,-29.82 -9.81,-44.98l-93.93 0zm-66.37 0.02c-11.69,0 -21.17,-9.48 -21.17,-21.17 0,-11.69 9.48,-21.17 21.17,-21.17l14.85 0c11.69,0 21.17,9.48 21.17,21.17 0,11.69 -9.48,21.17 -21.17,21.17l-14.85 0z" fill="#FFFFFF"/></g>
    </g></svg>